<svg width="90" height="102" viewBox="0 0 90 102" fill="none" xmlns="http://www.w3.org/2000/svg">
<path d="M87.0458 42.3497L47.2641 2.56222C44.9179 0.221789 41.1226 0.249481 38.8071 2.55923C36.4784 4.89388 36.4784 8.68462 38.8071 11.0163L78.5945 50.801C80.9254 53.1318 84.7147 53.1318 87.0458 50.801C89.383 48.4637 89.383 44.6865 87.0458 42.3497Z" fill="#FACA10"/>
<path d="M35.8552 16.5161L35.5558 18.017C33.4466 28.5673 28.3207 38.5902 21.3877 46.7138L43.0323 68.3583C51.1548 61.4267 61.0397 56.1631 71.5903 54.0514L73.094 53.752L35.8552 16.5161Z" fill="#FACA10"/>
<path d="M17.4196 51.1973L2.62693 65.9869C-0.868369 69.4822 -0.882912 75.1568 2.62693 78.6666L11.0782 87.1179C14.5735 90.6132 20.2481 90.6275 23.7579 87.1179L38.5491 72.3266L17.4196 51.1973ZM19.5325 74.4412C18.3652 75.6084 16.4741 75.6084 15.3068 74.4412C14.1396 73.2739 14.1396 71.3828 15.3068 70.2155L19.5325 65.9899C20.6997 64.8227 22.5909 64.8227 23.7581 65.9899C24.9253 67.1571 24.9253 69.0483 23.7581 70.2155L19.5325 74.4412Z" fill="#FACA10"/>
<path d="M51.0258 88.708L55.0909 84.6429C58.6009 81.1334 58.5894 75.4589 55.0911 71.9664L52.0717 68.9448C50.4029 70.0658 48.8091 71.2839 47.2596 72.5836L50.8655 76.1948C52.0299 77.3533 52.0381 79.2387 50.8655 80.4175L46.7333 84.5497L40.6607 78.6661L32.209 87.1178L45.7672 100.256C48.081 102.575 51.8799 102.589 54.2155 100.253C56.5472 97.9211 56.5472 94.1303 54.2155 91.7984L51.0258 88.708Z" fill="#FACA10"/>
<path d="M63.0986 0C61.4469 0 60.1104 1.33656 60.1104 2.98829V8.96486C60.1104 10.6166 61.4469 11.9532 63.0986 11.9532C64.7504 11.9532 66.0869 10.6166 66.0869 8.96486V2.98829C66.0869 1.33656 64.7504 0 63.0986 0Z" fill="#FACA10"/>
<path d="M87.0049 23.9062H81.0283C79.3766 23.9062 78.04 25.2428 78.04 26.8945C78.04 28.5463 79.3766 29.8828 81.0283 29.8828H87.0049C88.6566 29.8828 89.9932 28.5463 89.9932 26.8945C89.9932 25.2428 88.6566 23.9062 87.0049 23.9062Z" fill="#FACA10"/>
<path d="M83.1411 6.85198C81.9739 5.68476 80.0827 5.68476 78.9155 6.85198L72.9389 12.8286C71.7717 13.9958 71.7717 15.887 72.9389 17.0542C74.1061 18.2214 75.9973 18.2216 77.1645 17.0542L83.1411 11.0776C84.3083 9.91039 84.3083 8.01921 83.1411 6.85198Z" fill="#FACA10"/>
</svg>
