<svg width="14" height="14" viewBox="0 0 14 14" fill="none" xmlns="http://www.w3.org/2000/svg">
<path d="M7 13.6746C5.61553 13.6746 4.26215 13.299 3.11101 12.5954C1.95987 11.8917 1.06266 10.8916 0.532846 9.72148C0.00303298 8.55136 -0.13559 7.26379 0.134506 6.02159C0.404603 4.7794 1.07129 3.63837 2.05026 2.74279C3.02922 1.84722 4.2765 1.23732 5.63437 0.990236C6.99224 0.743147 8.3997 0.869962 9.67879 1.35464C10.9579 1.83932 12.0511 2.6601 12.8203 3.71319C13.5895 4.76627 14 6.00436 14 7.27089C14 8.96926 13.2625 10.5981 11.9497 11.799C10.637 12.9999 8.85652 13.6746 7 13.6746ZM7 1.78201C5.81331 1.78201 4.65328 2.10392 3.66658 2.70705C2.67989 3.31018 1.91085 4.16742 1.45673 5.17039C1.0026 6.17335 0.88378 7.27698 1.11529 8.34172C1.3468 9.40646 1.91825 10.3845 2.75736 11.1521C3.59648 11.9198 4.66557 12.4425 5.82946 12.6543C6.99335 12.8661 8.19975 12.7574 9.2961 12.342C10.3925 11.9265 11.3295 11.223 11.9888 10.3204C12.6481 9.41771 13 8.35649 13 7.27089C13 5.81515 12.3679 4.41903 11.2426 3.38966C10.1174 2.3603 8.5913 1.78201 7 1.78201Z" fill="#B0B0B0"/>
<path d="M9.295 10.0154L6.5 7.4585V3.1543H7.5V7.07885L10 9.37046L9.295 10.0154Z" fill="#B0B0B0"/>
</svg>
